<?xml version="1.0" encoding="UTF-8"?>
<svg xmlns="http://www.w3.org/2000/svg" xmlns:xlink="http://www.w3.org/1999/xlink" viewBox="0 0 96 96" width="96px" height="96px">
<g id="surface4486885">
<path style=" stroke:none;fill-rule:nonzero;fill:rgb(10.196079%,73.725492%,61.176473%);fill-opacity:1;" d="M 79.734375 51.910156 C 76.65625 51.929688 73.992188 52.664062 71.761719 53.769531 C 70.945312 52.136719 70.117188 50.703125 69.980469 49.636719 C 69.816406 48.394531 69.628906 47.648438 69.824219 46.167969 C 70.023438 44.6875 70.878906 42.585938 70.867188 42.429688 C 70.855469 42.269531 70.675781 41.515625 68.902344 41.503906 C 67.128906 41.488281 65.609375 41.84375 65.433594 42.3125 C 65.253906 42.78125 64.910156 43.835938 64.699219 44.933594 C 64.390625 46.542969 61.15625 52.28125 59.324219 55.28125 C 58.722656 54.109375 58.214844 53.074219 58.109375 52.261719 C 57.945312 51.015625 57.757812 50.273438 57.953125 48.789062 C 58.148438 47.308594 59.007812 45.207031 58.996094 45.050781 C 58.984375 44.890625 58.804688 44.136719 57.03125 44.125 C 55.257812 44.113281 53.738281 44.464844 53.558594 44.933594 C 53.382812 45.402344 53.191406 46.496094 52.828125 47.554688 C 52.464844 48.613281 48.171875 58.183594 47.042969 60.664062 C 46.46875 61.929688 45.972656 62.945312 45.621094 63.636719 C 45.617188 63.636719 45.617188 63.632812 45.617188 63.632812 C 45.617188 63.632812 45.597656 63.679688 45.558594 63.757812 C 45.257812 64.347656 45.078125 64.675781 45.078125 64.675781 C 45.078125 64.675781 45.082031 64.679688 45.085938 64.6875 C 44.847656 65.121094 44.589844 65.523438 44.464844 65.523438 C 44.375 65.523438 44.199219 64.367188 44.503906 62.785156 C 45.140625 59.464844 46.675781 54.289062 46.660156 54.109375 C 46.652344 54.015625 46.949219 53.113281 45.660156 52.640625 C 44.40625 52.183594 43.960938 52.949219 43.847656 52.949219 C 43.738281 52.953125 43.65625 53.21875 43.65625 53.21875 C 43.65625 53.21875 45.050781 47.398438 40.996094 47.398438 C 38.460938 47.398438 34.949219 50.171875 33.21875 52.6875 C 32.125 53.28125 29.789062 54.558594 27.308594 55.921875 C 26.359375 56.445312 25.386719 56.976562 24.464844 57.484375 C 24.402344 57.414062 24.339844 57.347656 24.273438 57.277344 C 19.355469 52.03125 10.269531 48.320312 10.652344 41.269531 C 10.792969 38.703125 11.683594 31.953125 28.117188 23.765625 C 41.578125 17.054688 52.359375 18.902344 54.21875 22.992188 C 56.878906 28.839844 48.460938 39.699219 34.480469 41.269531 C 29.152344 41.867188 26.347656 39.800781 25.648438 39.03125 C 24.914062 38.222656 24.804688 38.1875 24.53125 38.339844 C 24.085938 38.585938 24.367188 39.300781 24.53125 39.726562 C 24.949219 40.8125 26.660156 42.738281 29.582031 43.699219 C 32.152344 44.542969 38.40625 45.003906 45.96875 42.078125 C 54.441406 38.800781 61.054688 29.6875 59.109375 22.066406 C 57.132812 14.320312 44.285156 11.773438 32.125 16.09375 C 24.878906 18.664062 17.046875 22.699219 11.410156 27.96875 C 4.714844 34.230469 3.644531 39.6875 4.085938 41.964844 C 5.648438 50.058594 16.808594 55.332031 21.277344 59.238281 C 21.054688 59.359375 20.847656 59.472656 20.660156 59.578125 C 18.421875 60.6875 9.914062 65.136719 7.785156 69.839844 C 5.371094 75.175781 8.171875 79.003906 10.023438 79.519531 C 15.761719 81.113281 21.648438 78.242188 24.8125 73.523438 C 27.976562 68.804688 27.59375 62.65625 26.140625 59.855469 C 26.121094 59.820312 26.101562 59.785156 26.085938 59.75 C 26.660156 59.40625 27.253906 59.058594 27.835938 58.714844 C 28.976562 58.046875 30.097656 57.421875 31.066406 56.894531 C 30.523438 58.382812 30.125 60.167969 29.917969 62.746094 C 29.675781 65.773438 30.914062 69.6875 32.539062 71.226562 C 33.257812 71.90625 34.117188 71.921875 34.660156 71.921875 C 36.550781 71.921875 37.410156 70.351562 38.363281 68.488281 C 39.527344 66.210938 40.558594 63.554688 40.558594 63.554688 C 40.558594 63.554688 39.265625 70.726562 42.796875 70.726562 C 44.085938 70.726562 45.378906 69.054688 45.957031 68.207031 C 45.957031 68.214844 45.957031 68.21875 45.957031 68.21875 C 45.957031 68.21875 45.992188 68.164062 46.058594 68.054688 C 46.191406 67.851562 46.269531 67.71875 46.269531 67.71875 C 46.269531 67.71875 46.269531 67.707031 46.273438 67.683594 C 46.792969 66.785156 47.941406 64.734375 49.660156 61.359375 C 51.882812 56.992188 54.015625 51.527344 54.015625 51.527344 C 54.015625 51.527344 54.214844 52.863281 54.863281 55.074219 C 55.246094 56.375 56.058594 57.8125 56.699219 59.191406 C 56.183594 59.90625 55.867188 60.316406 55.867188 60.316406 C 55.867188 60.316406 55.871094 60.324219 55.875 60.339844 C 55.464844 60.886719 55.003906 61.476562 54.519531 62.054688 C 52.761719 64.144531 50.671875 66.53125 50.390625 67.21875 C 50.0625 68.03125 50.140625 68.628906 50.777344 69.109375 C 51.242188 69.460938 52.070312 69.515625 52.9375 69.457031 C 54.515625 69.351562 55.625 68.960938 56.171875 68.722656 C 57.027344 68.421875 58.019531 67.945312 58.953125 67.261719 C 60.675781 65.992188 61.710938 64.183594 61.613281 61.785156 C 61.554688 60.460938 61.136719 59.152344 60.601562 57.914062 C 60.757812 57.691406 60.914062 57.464844 61.070312 57.234375 C 63.785156 53.269531 65.890625 48.90625 65.890625 48.90625 C 65.890625 48.90625 66.089844 50.242188 66.738281 52.457031 C 67.066406 53.574219 67.71875 54.796875 68.300781 55.992188 C 65.75 58.066406 64.167969 60.476562 63.617188 62.054688 C 62.601562 64.980469 63.398438 66.304688 64.890625 66.605469 C 65.566406 66.742188 66.523438 66.433594 67.238281 66.128906 C 68.132812 65.832031 69.207031 65.339844 70.210938 64.601562 C 71.933594 63.335938 73.589844 61.5625 73.488281 59.164062 C 73.445312 58.070312 73.148438 56.988281 72.746094 55.949219 C 74.910156 55.046875 77.710938 54.546875 81.277344 54.960938 C 88.933594 55.855469 90.433594 60.632812 90.144531 62.632812 C 89.859375 64.632812 88.253906 65.734375 87.714844 66.066406 C 87.179688 66.398438 87.015625 66.515625 87.058594 66.761719 C 87.125 67.117188 87.375 67.105469 87.832031 67.027344 C 88.460938 66.921875 91.851562 65.402344 91.996094 61.710938 C 92.179688 57.019531 87.6875 51.871094 79.734375 51.910156 Z M 20.738281 71.800781 C 18.203125 74.566406 14.664062 75.609375 13.144531 74.730469 C 11.503906 73.78125 12.152344 69.707031 15.265625 66.773438 C 17.160156 64.984375 19.609375 63.335938 21.230469 62.320312 C 21.601562 62.101562 22.144531 61.773438 22.804688 61.378906 C 22.914062 61.316406 22.976562 61.28125 22.976562 61.28125 L 22.972656 61.277344 C 23.101562 61.203125 23.230469 61.125 23.367188 61.042969 C 24.5 65.21875 23.402344 68.898438 20.738281 71.800781 Z M 39.210938 59.246094 C 38.328125 61.398438 36.480469 66.90625 35.355469 66.609375 C 34.386719 66.355469 33.800781 62.171875 35.160156 58.050781 C 35.847656 55.976562 37.308594 53.496094 38.171875 52.535156 C 39.554688 50.988281 41.078125 50.480469 41.449219 51.109375 C 41.917969 51.910156 39.765625 57.894531 39.210938 59.246094 Z M 54.46875 66.527344 C 54.09375 66.722656 53.75 66.84375 53.59375 66.75 C 53.472656 66.679688 53.746094 66.421875 53.746094 66.421875 C 53.746094 66.421875 55.652344 64.367188 56.40625 63.433594 C 56.84375 62.890625 57.351562 62.242188 57.902344 61.523438 C 57.90625 61.597656 57.90625 61.667969 57.90625 61.738281 C 57.902344 64.199219 55.527344 65.859375 54.46875 66.527344 Z M 66.222656 63.847656 C 65.941406 63.648438 65.988281 63.007812 66.90625 61.003906 C 67.269531 60.21875 68.09375 58.894531 69.519531 57.632812 C 69.6875 58.152344 69.785156 58.648438 69.785156 59.113281 C 69.765625 62.210938 67.558594 63.367188 66.222656 63.847656 Z M 66.222656 63.847656 "/>
</g>
</svg>
