<?xml version="1.0" encoding="UTF-8"?>
<svg xmlns="http://www.w3.org/2000/svg" xmlns:xlink="http://www.w3.org/1999/xlink" viewBox="0 0 96 96" width="96px" height="96px">
<g id="surface5200317">
<path style=" stroke:none;fill-rule:nonzero;fill:rgb(90.588236%,29.803923%,23.529412%);fill-opacity:1;" d="M 47.300781 49.796875 C 45.304688 46.578125 43.855469 43.910156 41.851562 38.886719 C 38.457031 30.398438 62.480469 22.730469 52.738281 7.996094 C 56.960938 18.175781 37.585938 24.46875 35.785156 32.945312 C 34.140625 40.738281 47.289062 49.796875 47.300781 49.796875 Z M 47.300781 49.796875 "/>
<path style=" stroke:none;fill-rule:nonzero;fill:rgb(90.588236%,29.803923%,23.529412%);fill-opacity:1;" d="M 47.757812 34.539062 C 47.371094 39.570312 52.214844 42.253906 52.355469 45.929688 C 52.464844 48.921875 49.460938 51.414062 49.460938 51.414062 C 49.460938 51.414062 54.914062 50.34375 56.617188 45.78125 C 58.507812 40.710938 52.949219 37.242188 53.523438 33.183594 C 54.054688 29.308594 65.585938 22.097656 65.585938 22.097656 C 65.585938 22.097656 48.621094 23.222656 47.757812 34.539062 Z M 47.757812 34.539062 "/>
<path style=" stroke:none;fill-rule:nonzero;fill:rgb(60.784316%,34.901962%,71.372551%);fill-opacity:1;" d="M 64.167969 50.109375 C 67.675781 49.320312 70.632812 51.554688 70.632812 54.128906 C 70.632812 59.933594 62.59375 65.414062 62.59375 65.414062 C 62.59375 65.414062 75.042969 63.933594 75.042969 54.40625 C 75.042969 48.105469 68.929688 46.53125 64.167969 50.109375 Z M 58.257812 54.789062 C 58.257812 54.789062 62.140625 52.023438 63.175781 50.984375 C 53.648438 53.007812 31.898438 53.28125 31.898438 51.523438 C 31.898438 49.90625 38.910156 48.246094 38.910156 48.246094 C 38.910156 48.246094 23.367188 48.023438 23.367188 52.609375 C 23.367188 57.390625 43.714844 57.730469 58.257812 54.789062 Z M 58.257812 54.789062 "/>
<path style=" stroke:none;fill-rule:nonzero;fill:rgb(60.784316%,34.901962%,71.372551%);fill-opacity:1;" d="M 55.871094 59.140625 C 46.851562 62.140625 30.242188 61.183594 35.160156 57.15625 C 32.765625 57.15625 29.214844 59.082031 29.214844 60.933594 C 29.214844 64.648438 47.179688 67.515625 60.472656 62.078125 Z M 55.871094 59.140625 "/>
<path style=" stroke:none;fill-rule:nonzero;fill:rgb(60.784316%,34.901962%,71.372551%);fill-opacity:1;" d="M 37.371094 65.476562 C 34.101562 65.476562 31.980469 67.585938 31.980469 69.121094 C 31.980469 73.902344 51.503906 74.386719 59.234375 69.53125 L 54.320312 66.269531 C 48.542969 68.808594 34.027344 69.15625 37.371094 65.476562 Z M 37.371094 65.476562 "/>
<path style=" stroke:none;fill-rule:nonzero;fill:rgb(60.784316%,34.901962%,71.372551%);fill-opacity:1;" d="M 72.5625 73.265625 C 72.5625 71.390625 70.453125 70.511719 69.695312 70.089844 C 74.152344 80.835938 25.0625 80 25.0625 73.65625 C 25.0625 72.214844 28.675781 70.800781 32.015625 71.46875 L 29.175781 69.792969 C 22.519531 68.746094 18 71.675781 18 74.035156 C 18 85.039062 72.5625 84.511719 72.5625 73.265625 Z M 72.5625 73.265625 "/>
<path style=" stroke:none;fill-rule:nonzero;fill:rgb(60.784316%,34.901962%,71.372551%);fill-opacity:1;" d="M 78 77.207031 C 69.707031 85.398438 48.683594 88.382812 27.539062 83.320312 C 48.683594 92.328125 77.898438 87.257812 78 77.207031 Z M 78 77.207031 "/>
</g>
</svg>
